# xmcd
#
# Track frame offsets:
#	150
#	10236
#	21467
#	38598
#	57208
#	69326
#	80849
#	92763
#	105764
#	117597
#	129052
#	141547
#	154082
#	170894
#	182138
#	199640
#	211587
#	228855
#	244239
#	261022
#	271257
#
# Disc length: 3869 seconds
#
# Revision: 0
# Processed by: cddbd v1.5.2PL0 Copyright (c) Steve Scherf et al.
# Submitted via: EZCDAudioConverter 2.1.5.1
#
DISCID=1d0f1b15
DTITLE=Various Artist - My Country Christmas
DYEAR=2016
DGENRE=Swedish Top 40 Country/Christmas 80s, 90s, 00s, 10s 
TTITLE0=George Strait - Jingle Bell Rock
TTITLE1=Travis Tritt - Santa Looked A Lot Like Daddy
TTITLE2=Blake Shelton, Michael Bublé - Home
TTITLE3=Brad Paisley - Silver Bells
TTITLE4=Dolly Parton and Kenny Rogers - With Bells On
TTITLE5=Dan+Shay - Have Yourself A Merry Little Christmas
TTITLE6=Randy Travis - Pretty Paper
TTITLE7=Alan Jackson - Honky Tonk Christmas
TTITLE8=Clay Walker - Feliz Navidad
TTITLE9=Jo Dee Messina - Sleigh Ride
TTITLE10=Brooks and Dunn - White Christmas
TTITLE11=Vince Gill - It's The Most Wonderful Time Of The Year
TTITLE12=Reba McEntire - I Saw Mama Kissing Santa Claus
TTITLE13=Tyler Farr - Blue Christmas
TTITLE14=Kenny Chesney - I'll Be Home For Christmas
TTITLE15=LeAnn Rimes - Rockin' Around The Christmas Tree
TTITLE16=Dwight Yoakam - The Christmas Song
TTITLE17=Martina McBride - Silent Night
TTITLE18=Sara Evans - Go Tell It On The Mountain
TTITLE19=Kenny Rogers - Winter Wonderland
TTITLE20=Wynonna - O' Holy Night
EXTD=
EXTT0=
EXTT1=
EXTT2=
EXTT3=
EXTT4=
EXTT5=
EXTT6=
EXTT7=
EXTT8=
EXTT9=
EXTT10=
EXTT11=
EXTT12=
EXTT13=
EXTT14=
EXTT15=
EXTT16=
EXTT17=
EXTT18=
EXTT19=
EXTT20=
PLAYORDER=
